<svg preserveAspectRatio="none" overflow="visible" style="display: block;" width="24" height="24" viewBox="0 0 24 24" fill="none" xmlns="http://www.w3.org/2000/svg">
<g id="pencil">
<path id="Primary" d="M16.625 5C16.2906 5 15.9719 5.13125 15.7344 5.36875L13.9062 7.19688L16.8031 10.0938L18.6312 8.26562C18.8687 8.02813 19 7.70937 19 7.375C19 7.04063 18.8687 6.72187 18.6312 6.48438L17.5156 5.36875C17.2781 5.13125 16.9594 5 16.625 5ZM6.90625 14.1969L9.80312 17.0938L16.0937 10.8031L13.1969 7.90625L6.90625 14.1969ZM6.25 14.9563C6.1875 15.0719 6.1375 15.1969 6.1 15.325L5.10938 18.8906L8.675 17.9C8.80313 17.8656 8.92812 17.8156 9.04375 17.75L6.25 14.9563ZM15.0281 4.6625C15.45 4.2375 16.025 4 16.625 4C17.225 4 17.8 4.2375 18.2219 4.6625L19.3375 5.77813C19.7625 6.2 20 6.775 20 7.375C20 7.975 19.7625 8.55 19.3375 8.97188L10.15 18.1594C9.81563 18.4938 9.39688 18.7375 8.94063 18.8656L4.95 19.9719C4.69062 20.0438 4.40937 19.9719 4.21875 19.7781C4.02812 19.5844 3.95312 19.3063 4.025 19.0469L5.1375 15.0562C5.26563 14.6 5.50625 14.1844 5.84375 13.8469L15.0312 4.65938L15.0281 4.6625Z" fill="black"/>
</g>
</svg>
